<?xml version="1.0" encoding="utf-8"?>
<!-- Generator: Adobe Illustrator 28.3.0, SVG Export Plug-In . SVG Version: 6.00 Build 0)  -->
<svg version="1.1" id="Capa_1" xmlns="http://www.w3.org/2000/svg" xmlns:xlink="http://www.w3.org/1999/xlink" x="0px" y="0px"
	 viewBox="0 0 398.7 185" style="enable-background:new 0 0 398.7 185;" xml:space="preserve">
<style type="text/css">
	.st0{fill:#FFFFFF;}
	.st1{fill:#F76DDA;}
</style>
<g>
	<path class="st0" d="M71.6,111.9v21.3h-3.5v-16l-6.2,16h-3l-6.2-16v16h-3.5v-21.3h4.2l7.1,17l6.9-17
		C67.4,111.9,71.6,111.9,71.6,111.9z"/>
	<path class="st0" d="M79.3,111.6v21.7h-3.5v-21.7H79.3z"/>
	<path class="st0" d="M97,130.4c-0.5,0.9-1.3,1.7-2.4,2.2s-2.4,0.8-3.9,0.8c-1.5,0-2.8-0.3-3.9-0.8c-1.2-0.6-2.1-1.2-2.8-2.2
		s-1.1-2-1.2-3.3h3.7c0.1,1,0.5,1.7,1.2,2.4c0.7,0.7,1.7,1,2.8,1c1,0,1.9-0.3,2.5-0.8s0.9-1.3,0.9-2.2c0-0.8-0.2-1.5-0.6-1.9
		c-0.4-0.5-1-0.9-1.6-1.2c-0.6-0.3-1.5-0.6-2.6-1c-1.3-0.4-2.4-0.8-3.3-1.3c-0.8-0.4-1.6-1-2.1-1.9c-0.6-0.8-0.9-1.9-0.9-3.3
		c0-1.2,0.3-2.2,0.8-3c0.6-0.9,1.4-1.5,2.5-2c1-0.5,2.3-0.7,3.7-0.7c2.2,0,3.9,0.6,5.3,1.6s2,2.5,2.2,4.2h-3.8
		c-0.1-0.8-0.6-1.5-1.2-2.1s-1.5-0.9-2.6-0.9c-1,0-1.8,0.3-2.4,0.8c-0.6,0.5-0.9,1.2-0.9,2.1c0,0.8,0.2,1.3,0.6,1.8
		c0.4,0.5,0.9,0.8,1.5,1.1c0.6,0.3,1.5,0.6,2.6,1c1.4,0.4,2.5,0.8,3.4,1.3c0.9,0.5,1.6,1.1,2.2,1.9c0.6,0.8,0.9,1.9,0.9,3.3
		C97.8,128.5,97.5,129.5,97,130.4C97,130.4,97,130.4,97,130.4z"/>
	<path class="st0" d="M120.8,133.2l-5.2-8l-4.6,8h-4l6.7-11.1l-6.8-10.6h4.2l5.1,7.9l4.6-7.9h4l-6.7,10.9l7,10.8
		C125,133.2,120.8,133.2,120.8,133.2z"/>
	<path class="st0" d="M129.8,111.6l6.2,17.9l6.3-17.9h3.8l-7.8,21.7h-4.5l-7.8-21.7H129.8z"/>
	<path class="st0" d="M168.8,128.5h-9.1l-1.7,4.7h-3.7l8-21.3h4l8,21.3h-3.7L168.8,128.5L168.8,128.5z M167.9,125.8l-3.6-10.1
		l-3.6,10.1H167.9z"/>
	<path class="st0" d="M194.4,133.2h-3.5l-10.5-16v16h-3.5v-21.7h3.5l10.5,16v-16h3.5V133.2z M184.7,106.4c0.3,0.1,0.7,0.3,1.1,0.6
		c0.3,0.2,0.6,0.4,0.8,0.5c0.2,0.1,0.6,0.1,0.8,0.1c0.3,0,0.6-0.1,0.9-0.3c0.3-0.2,0.4-0.6,0.5-1.1h1.9c-0.1,1.2-0.6,2.1-1.1,2.7
		s-1.3,0.9-2.2,0.9c-0.4,0-0.8-0.1-1.2-0.2c-0.3-0.1-0.7-0.3-1.1-0.6c-0.4-0.2-0.7-0.4-0.9-0.5s-0.4-0.1-0.7-0.1
		c-0.8,0-1.2,0.5-1.3,1.5h-1.9c0.4-2.4,1.5-3.6,3.3-3.6C184.1,106.2,184.5,106.3,184.7,106.4C184.7,106.4,184.7,106.4,184.7,106.4z"
		/>
	<path class="st0" d="M214.1,112.7c1.7,1,2.9,2.3,3.8,3.9c1,1.7,1.4,3.6,1.4,5.7c0,2.1-0.5,4-1.4,5.7c-0.9,1.7-2.2,3-3.8,3.9
		c-1.6,0.9-3.5,1.5-5.5,1.5c-2,0-3.9-0.5-5.5-1.5c-1.6-1-2.9-2.3-3.9-3.9c-1-1.7-1.4-3.6-1.4-5.7c0-2.1,0.5-4,1.4-5.7
		c1-1.7,2.2-3,3.9-3.9c1.7-1,3.5-1.4,5.5-1.4C210.6,111.3,212.4,111.8,214.1,112.7z M204.9,115.5c-1.1,0.6-1.9,1.5-2.6,2.7
		c-0.6,1.2-0.9,2.6-0.9,4.2c0,1.6,0.3,3,0.9,4.2c0.6,1.2,1.5,2.1,2.6,2.7c1.1,0.6,2.4,1,3.7,1s2.6-0.3,3.7-1c1-0.6,1.9-1.5,2.5-2.7
		c0.6-1.2,0.9-2.6,0.9-4.2c0-1.6-0.3-3-0.9-4.2c-0.6-1.2-1.5-2.1-2.5-2.7c-1-0.6-2.3-1-3.7-1S206,114.8,204.9,115.5z"/>
	<path class="st0" d="M236.3,130.4c-0.5,0.9-1.3,1.7-2.4,2.2s-2.4,0.8-3.8,0.8c-1.5,0-2.8-0.3-3.9-0.8c-1.2-0.6-2.1-1.2-2.8-2.2
		c-0.7-1-1.1-2-1.2-3.3h3.7c0.1,1,0.5,1.7,1.2,2.4s1.7,1,2.8,1c1,0,1.9-0.3,2.5-0.8c0.6-0.6,0.9-1.3,0.9-2.2c0-0.8-0.2-1.5-0.6-1.9
		c-0.4-0.5-1-0.9-1.6-1.2c-0.6-0.3-1.5-0.6-2.6-1c-1.4-0.4-2.4-0.8-3.3-1.3c-0.8-0.4-1.6-1-2.1-1.9c-0.6-0.8-0.9-1.9-0.9-3.3
		c0-1.2,0.3-2.2,0.8-3c0.6-0.9,1.4-1.5,2.4-2c1-0.5,2.3-0.7,3.7-0.7c2.2,0,3.9,0.6,5.3,1.6c1.3,1,2.1,2.5,2.2,4.2h-3.8
		c-0.1-0.8-0.6-1.5-1.2-2.1c-0.6-0.6-1.5-0.9-2.6-0.9c-1,0-1.8,0.3-2.4,0.8c-0.6,0.5-0.9,1.2-0.9,2.1c0,0.8,0.2,1.3,0.6,1.8
		c0.4,0.5,0.9,0.8,1.5,1.1c0.6,0.3,1.5,0.6,2.6,1c1.4,0.4,2.5,0.8,3.4,1.3c0.9,0.4,1.6,1.1,2.2,1.9c0.6,0.8,0.9,1.9,0.9,3.3
		C237,128.5,236.8,129.5,236.3,130.4L236.3,130.4L236.3,130.4z"/>
</g>
<rect x="52.3" y="99.3" class="st1" width="102" height="4.4"/>
<rect x="136" y="141.7" class="st1" width="102" height="4.4"/>
<rect x="2.6" y="171.7" class="st1" width="63.7" height="3.4"/>
<rect x="213.4" y="171.7" class="st1" width="64.3" height="3.4"/>
<g>
	<path class="st0" d="M24.1,70.4h18.8l-1.6,8.7H11l10.1-57h11.4L24.1,70.4z"/>
	<path class="st0" d="M69.9,22.2l-6.2,35.2c-0.2,1.5-0.3,2.6-0.3,3.2c0,2.8,0.8,5,2.5,6.5c1.7,1.5,4.1,2.2,7.2,2.2
		c3.7,0,6.7-1,9.1-3.1c2.4-2,3.9-5,4.6-8.9L93,22.2h11.5l-6.2,35.2c-0.9,4.9-2.6,9-5.3,12.4c-2.7,3.3-5.9,5.9-9.7,7.5
		c-3.8,1.7-7.9,2.5-12.2,2.5c-5.8,0-10.4-1.5-14-4.5c-3.6-3-5.3-7.3-5.3-12.9c0-1.5,0.2-3.2,0.5-5l6.2-35.2H69.9z"/>
	<path class="st0" d="M148.8,22.2l-7,40c-1,5.6-3.3,9.9-7.1,12.9c-3.8,3.1-8.3,4.6-13.7,4.6c-4.8,0-8.6-1.2-11.4-3.6
		c-2.8-2.4-4.2-5.8-4.2-10.2c0-1.2,0.1-2.6,0.4-4.1h11.5c-0.1,0.5-0.2,1.3-0.2,2.2c0,3.7,1.8,5.6,5.4,5.6c2.1,0,3.8-0.7,5.1-2
		c1.3-1.3,2.2-3.1,2.6-5.4l7-40H148.8z"/>
	<path class="st0" d="M188.9,68.3h-22.8l-5.6,10.9h-12l30.6-57.1h13.3l10.4,57.1h-12.1L188.9,68.3z M187.4,59.4l-4.1-24.2
		l-12.6,24.2H187.4z M196.8,10.3l-20.4,8.6l1.5-8.2L198.4,1L196.8,10.3z"/>
	<path class="st0" d="M259.3,79.2h-11.5L228.9,40L222,79.2h-11.5l10.1-57.1H232l18.9,39.2l6.9-39.2h11.4L259.3,79.2z"/>
</g>
<g>
	<path class="st0" d="M73.7,165v-3.8h6.6v17h-4.3V165H73.7z"/>
	<path class="st0" d="M83.2,175v-3.3l7.6-10.8h4.6v10.6h2v3.6h-2v3.1h-4.1V175H83.2z M91.6,165.4l-4,6.1h4V165.4z"/>
	<path class="st0" d="M108.9,155.4l-6.4,27.3h-4l6.4-27.3H108.9z"/>
	<path class="st0" d="M117,160.8c2.4,0,4.1,0.8,5.1,2.3c1.1,1.6,1.6,3.7,1.6,6.3c0,2.7-0.5,4.8-1.6,6.3c-1.1,1.6-2.8,2.3-5.1,2.3
		c-2.4,0-4.1-0.8-5.1-2.3s-1.6-3.7-1.6-6.3c0-2.7,0.5-4.8,1.6-6.3C112.9,161.5,114.6,160.8,117,160.8z M117,164.6
		c-1.1,0-1.8,0.4-2.2,1.3c-0.4,0.8-0.5,2-0.5,3.6c0,1.5,0.2,2.7,0.5,3.6c0.4,0.8,1.1,1.3,2.2,1.3c1.1,0,1.8-0.4,2.2-1.3
		c0.4-0.8,0.5-2,0.5-3.6c0-1.5-0.2-2.7-0.5-3.6C118.8,165,118.1,164.6,117,164.6z"/>
	<path class="st0" d="M126.5,174.3c1.5-1.3,2.8-2.3,3.6-3.1c0.9-0.8,1.6-1.6,2.3-2.5c0.6-0.9,0.9-1.7,0.9-2.5c0-0.7-0.1-1.2-0.4-1.5
		c-0.3-0.4-0.7-0.5-1.3-0.5c-1.2,0-1.8,0.9-1.9,2.6h-4c0-1.4,0.3-2.5,0.9-3.4c0.6-0.9,1.3-1.6,2.2-2c0.9-0.4,1.9-0.6,3-0.6
		c1.3,0,2.3,0.2,3.2,0.7c0.9,0.5,1.5,1.1,1.9,1.9c0.4,0.8,0.6,1.7,0.6,2.6c0,1.6-0.6,3.2-1.7,4.6c-1.2,1.4-2.6,2.8-4.4,4.2h6.5v3.3
		h-12v-3C126.2,174.5,126.5,174.3,126.5,174.3z"/>
	<path class="st0" d="M149.1,155.4l-6.4,27.3h-4l6.4-27.3H149.1z"/>
	<path class="st0" d="M151.1,174.3c1.5-1.3,2.8-2.3,3.6-3.1c0.9-0.8,1.6-1.6,2.3-2.5c0.6-0.9,0.9-1.7,0.9-2.5c0-0.7-0.1-1.2-0.4-1.5
		c-0.3-0.4-0.7-0.5-1.3-0.5c-1.2,0-1.8,0.9-1.9,2.6h-4c0-1.4,0.3-2.5,0.9-3.4s1.3-1.6,2.2-2c0.9-0.4,1.9-0.6,3-0.6
		c1.3,0,2.3,0.2,3.2,0.7c0.9,0.5,1.5,1.1,1.9,1.9c0.4,0.8,0.6,1.7,0.6,2.6c0,1.6-0.6,3.2-1.7,4.6c-1.2,1.4-2.6,2.8-4.4,4.2h6.5v3.3
		h-12v-3C150.8,174.5,151,174.3,151.1,174.3z"/>
	<path class="st0" d="M170.9,160.8c2.4,0,4.1,0.8,5.1,2.3c1.1,1.6,1.6,3.7,1.6,6.3c0,2.7-0.5,4.8-1.6,6.3c-1.1,1.6-2.8,2.3-5.1,2.3
		c-2.4,0-4.1-0.8-5.1-2.3c-1.1-1.6-1.6-3.7-1.6-6.3c0-2.7,0.5-4.8,1.6-6.3C166.8,161.5,168.5,160.8,170.9,160.8z M170.9,164.6
		c-1.1,0-1.8,0.4-2.2,1.3c-0.4,0.8-0.5,2-0.5,3.6c0,1.5,0.2,2.7,0.5,3.6c0.4,0.8,1.1,1.3,2.2,1.3c1.1,0,1.8-0.4,2.2-1.3
		c0.4-0.8,0.5-2,0.5-3.6c0-1.5-0.2-2.7-0.5-3.6C172.7,165,172,164.6,170.9,164.6z"/>
	<path class="st0" d="M180.4,174.3c1.5-1.3,2.8-2.3,3.6-3.1s1.6-1.6,2.3-2.5c0.6-0.9,0.9-1.7,0.9-2.5c0-0.7-0.1-1.2-0.4-1.5
		c-0.3-0.4-0.7-0.5-1.3-0.5c-1.2,0-1.8,0.9-1.9,2.6h-4c0-1.4,0.3-2.5,0.9-3.4s1.3-1.6,2.2-2c0.9-0.4,1.9-0.6,3-0.6
		c1.3,0,2.3,0.2,3.2,0.7c0.9,0.5,1.5,1.1,1.9,1.9c0.4,0.8,0.6,1.7,0.6,2.6c0,1.6-0.6,3.2-1.7,4.6c-1.2,1.4-2.6,2.8-4.4,4.2h6.5v3.3
		h-12v-3C180.1,174.5,180.4,174.3,180.4,174.3z"/>
	<path class="st0" d="M201.5,164c-0.3-0.3-0.8-0.4-1.4-0.4c-0.9,0-1.6,0.4-2,1.2c-0.4,0.8-0.6,2-0.6,3.8c0.4-0.6,0.9-1,1.5-1.3
		c0.7-0.3,1.4-0.5,2.2-0.5c1.6,0,2.8,0.5,3.8,1.5c1,1,1.4,2.4,1.4,4.2c0,1.2-0.2,2.2-0.7,3.1c-0.5,0.9-1.2,1.6-2.1,2.1
		c-0.9,0.5-2,0.7-3.2,0.7c-2.5,0-4.2-0.8-5.1-2.3c-1-1.5-1.4-3.8-1.4-6.7c0-3,0.5-5.3,1.5-6.8c1-1.5,2.6-2.2,4.9-2.2
		c1.2,0,2.2,0.2,3,0.7c0.8,0.5,1.4,1.1,1.9,1.9s0.7,1.6,0.8,2.5h-3.8C202,164.8,201.8,164.3,201.5,164z M198.5,170.6
		c-0.5,0.4-0.7,1-0.7,1.7c0,0.8,0.2,1.4,0.6,1.8c0.4,0.4,1,0.6,1.8,0.6c0.7,0,1.3-0.2,1.7-0.6c0.4-0.4,0.6-1,0.6-1.7
		c0-0.8-0.2-1.3-0.6-1.8c-0.4-0.4-1-0.6-1.7-0.6C199.6,170,199,170.2,198.5,170.6z"/>
</g>
</svg>
